<!DOCTYPE svg PUBLIC "-//W3C//DTD SVG 1.1//EN" "http://www.w3.org/Graphics/SVG/1.1/DTD/svg11.dtd">
<!-- Uploaded to: SVG Repo, www.svgrepo.com, Transformed by: SVG Repo Mixer Tools -->
<svg fill="#000000" width="800px" height="800px" viewBox="0 0 24.00 24.00" id="maps-location-place-right" data-name="Flat Line" xmlns="http://www.w3.org/2000/svg" class="icon flat-line">
<g id="SVGRepo_bgCarrier" stroke-width="0"/>
<g id="SVGRepo_tracerCarrier" stroke-linecap="round" stroke-linejoin="round" stroke="#CCCCCC" stroke-width="0.144"/>
<g id="SVGRepo_iconCarrier">
<path id="secondary" d="M19,6.5a3.5,3.5,0,0,0-7,0C12,10,15.5,13,15.5,13S19,10,19,6.5Z" style="fill: #ff6f00; stroke-width:0.624;"/>
<path id="primary" d="M19,9h1a1,1,0,0,1,1,1V20a1,1,0,0,1-1,1H4a1,1,0,0,1-1-1V10A1,1,0,0,1,4,9h8" style="fill: none; stroke: #000000; stroke-linecap: round; stroke-linejoin: round; stroke-width:0.624;"/>
<path id="primary-2" data-name="primary" d="M8,17l3-8m10,8H3m12,4V17M19,6.5a3.5,3.5,0,0,0-7,0C12,10,15.5,13,15.5,13S19,10,19,6.5Z" style="fill: none; stroke: #000000; stroke-linecap: round; stroke-linejoin: round; stroke-width:0.624;"/>
</g>
</svg>